<svg xmlns="http://www.w3.org/2000/svg" fill="none" viewBox="0 0 16 23" height="23" width="16">
<path fill="white" d="M6.22737 22.2999L7.07158 21.0734C6.61126 20.4711 6.40075 19.7146 6.48381 18.9611C6.56687 18.2076 6.93712 17.5151 7.51758 17.0276C8.49331 16.2121 9.16191 15.0884 9.41307 13.8419C11.8979 17.3939 10.6077 19.3531 9.41307 21.0893L10.2891 22.2999C11.9527 21.9864 13.4466 21.0815 14.4948 19.7522C15.543 18.4229 16.0747 16.7592 15.9915 15.0684C15.9915 15.0684 16.326 11.6278 12.3598 8.26689C12.3598 8.26689 7.86801 4.10955 9.429 1.03535L8.29808 0C6.57272 1.20981 5.25278 2.91231 4.511 4.88469C3.76923 6.85707 3.64018 9.00744 4.14074 11.0544C3.76303 10.6858 3.46013 10.2477 3.24874 9.76416L1.86297 9.65267C1.75147 9.84381 -1.06788 14.3197 0.44533 18.0948C0.984297 19.2206 1.79507 20.1945 2.80451 20.9286C3.81395 21.6627 4.99028 22.134 6.22737 22.2999ZM9.41307 11.2296L8.02729 11.8508C8.10117 12.5774 8.00749 13.3114 7.75346 13.9962C7.49942 14.681 7.09179 15.2984 6.56187 15.8011C5.87912 16.2985 5.36201 16.99 5.0779 17.7855C4.79379 18.581 4.75585 19.4437 4.96902 20.261C4.31067 20.0304 3.70589 19.6687 3.1912 19.1978C2.67652 18.7269 2.26261 18.1566 1.97446 17.5213C1.43365 15.5823 1.66784 13.5089 2.62753 11.7393C2.9292 12.2286 3.3674 12.619 3.88816 12.8624C4.40891 13.1058 4.98949 13.1916 5.55838 13.1091L6.11587 12.026C5.41816 10.5172 5.18052 8.83624 5.43265 7.19314C5.68478 5.55005 6.4155 4.01768 7.53351 2.78749C7.75651 6.16433 11.213 9.28631 11.3245 9.46152C14.6217 12.2649 14.3987 14.8613 14.3987 14.9728C14.4609 15.9566 14.2589 16.9391 13.8136 17.8185C13.3682 18.6979 12.6959 19.4422 11.8661 19.9743C12.8058 17.7443 12.8058 15.0684 9.36529 11.2296H9.41307Z"></path>
</svg>
