<svg xmlns="http://www.w3.org/2000/svg" fill="none" viewBox="0 0 151 151" height="151" width="151">
<path fill="#C4C4C4" d="M123.332 149.578C119.387 150.197 115.656 147.545 114.96 143.595C114.926 143.4 114.899 143.204 114.88 143.008L110.436 95.8169C110.305 94.4217 109.764 93.0964 108.882 92.0073C108.001 90.9181 106.817 90.1136 105.48 89.6946L104.996 89.5433L104.443 89.3507C104.226 89.2737 103.997 89.1808 103.726 89.0776C102.668 88.66 101.292 88.0168 99.8151 87.1494C98.3665 86.277 96.8709 85.1717 95.56 83.8321C94.255 82.4914 93.1472 80.9148 92.4055 79.1125C91.6263 77.3167 91.4688 75.2502 91.0698 73.1055C90.728 70.9508 90.38 68.6761 90.0753 66.3135C89.9087 65.1347 89.7751 63.9299 89.6306 62.7119C89.4787 61.4953 89.3637 60.2569 89.2354 59.0109C88.9856 56.5176 88.7927 53.9742 88.6255 51.4261C88.4828 48.8738 88.3577 46.3183 88.3114 43.7891C88.2468 41.2631 88.2563 38.7645 88.2961 36.3411C88.3394 33.9172 88.4456 31.5625 88.5768 29.3244C88.6529 28.2034 88.7219 27.1139 88.8269 26.0534C88.9254 24.994 89.0065 23.9727 89.1098 22.988L89.4448 20.1549C89.5519 19.2551 89.6955 18.394 89.8076 17.5888C89.9164 16.7843 90.0544 16.0249 90.1762 15.3238L90.3511 14.3158L90.5328 13.3933C90.7092 12.4815 90.9064 11.5739 91.1244 10.6711L91.3742 9.70085L92.1239 6.7885C93.067 3.12498 96.7129 0.731687 100.41 1.53181C103.29 2.15498 105.343 4.45478 105.823 7.15302L117.517 73.4697L129.329 140.46L129.403 140.879C130.119 144.937 127.402 148.94 123.332 149.578ZM72.526 15.6055C72.5083 14.5697 72.513 13.6218 72.48 12.7804C72.435 11.4231 72.3895 10.0658 72.3435 8.70844C72.2756 6.89526 70.6149 5.41446 68.6378 5.80257C67.2944 6.06623 66.3141 7.23353 66.2097 8.59843L66.2058 8.65034L66.0652 10.4859L65.9041 12.5902C65.8469 13.4024 65.7407 14.3176 65.6481 15.3156C65.5479 16.3133 65.4544 17.3939 65.3096 18.5341C65.1692 19.6742 65.0438 20.8769 64.8734 22.1174C64.6982 23.3575 64.5357 24.6392 64.3378 25.9375C64.1296 27.2345 63.9429 28.554 63.712 29.8667C63.4811 31.1794 63.2681 32.4933 63.0142 33.7792L62.6517 35.6908L62.2713 37.5497C62.0286 38.7713 61.7584 39.943 61.5163 41.0558C61.4083 41.5259 61.2332 42.2661 61.0615 42.9857C60.927 43.5504 60.5818 44.0424 60.0966 44.361C59.6114 44.6797 59.0228 44.801 58.4512 44.7001C57.8778 44.5991 57.365 44.2822 57.018 43.8147C56.6711 43.3472 56.5164 42.7645 56.5858 42.1865L60.7855 7.18281C60.9754 5.54599 59.8267 3.97966 58.1067 3.76525C56.5306 3.56884 55.0793 4.66771 54.718 6.21399L46.6726 40.6278C46.5513 41.1442 46.2373 41.5948 45.7948 41.8873C45.3523 42.1798 44.8148 42.2921 44.2921 42.2013C43.7695 42.1105 43.3014 41.8234 42.9835 41.3988C42.6656 40.9742 42.522 40.4441 42.582 39.9171C42.6731 39.1264 42.7719 38.2811 42.8362 37.7621C42.9893 36.6334 43.1362 35.4402 43.3258 34.2092L43.6039 32.3323L43.9171 30.4117C44.1183 29.1167 44.3678 27.8093 44.5996 26.4967C44.8314 25.184 45.1074 23.8804 45.3555 22.5904C45.6138 21.3028 45.8993 20.0429 46.1588 18.8175C46.4231 17.5935 46.7165 16.4206 46.9746 15.3011C47.2282 14.1801 47.5102 13.1329 47.757 12.1611C48.0109 11.1917 48.2245 10.2954 48.4483 9.51269L49.0169 7.48009L49.5127 5.70731L49.5369 5.62208C49.9459 4.13715 49.1844 2.54959 47.7213 1.96063C46.1476 1.32713 44.3586 2.08921 43.7251 3.66292L43.017 5.42183L42.2039 7.44263C41.8851 8.22211 41.5654 9.11425 41.1947 10.0816C40.8311 11.0513 40.4223 12.098 40.0348 13.2196C39.6428 14.3397 39.2072 15.5158 38.7964 16.7448C38.39 17.9749 37.9526 19.2425 37.54 20.5404C37.1375 21.841 36.7045 23.1573 36.3152 24.4862C35.9259 25.8151 35.5189 27.1411 35.1624 28.4585L34.6182 30.4141L34.1139 32.3317C33.7759 33.5895 33.4848 34.8164 33.1952 35.9772C32.9183 37.1422 32.6582 38.2443 32.432 39.2682C32.2232 40.2014 32.0232 41.1366 31.8321 42.0735C31.6554 42.9096 31.0476 48.1846 31.2473 48.8045C30.6341 57.7427 35.0827 65.8758 42.1927 69.327L26.9969 140.589C26.961 140.759 26.9308 140.931 26.9063 141.103C26.3448 145.118 29.1442 148.828 33.1593 149.39C37.1743 149.951 40.8844 147.152 41.446 143.137L51.5394 70.9762C59.5807 70.1466 66.6815 63.7615 69.0079 54.8419C69.3297 54.3022 69.9348 51.693 70.0404 51.0743C70.1363 50.4623 70.2625 49.7176 70.3828 48.8715C70.5114 48.0236 70.6415 47.0695 70.7786 46.0302C70.916 44.9906 71.0488 43.8658 71.1871 42.6764C71.3121 41.4864 71.4581 40.2341 71.5708 38.9365L71.7527 36.9622L71.9102 34.9385C72.0255 33.5783 72.0969 32.1934 72.1854 30.8114C72.2742 29.4294 72.3172 28.0444 72.3839 26.6845C72.4399 25.3237 72.4623 23.9827 72.5012 22.688C72.5355 21.3927 72.5287 20.1384 72.5431 18.952C72.562 17.7643 72.536 16.641 72.526 15.6055Z"></path>
<ellipse fill="#CFD7E8" ry="3.775" rx="3.775" cy="49.075" cx="41.525"></ellipse>
<circle fill="#CFD7E8" r="3.775" cy="51.5917" cx="56.625"></circle>
<ellipse fill="#CFD7E8" ry="3.775" rx="3.775" cy="26.4249" cx="99.4083"></ellipse>
<path stroke-linecap="round" stroke-width="1.5" stroke="#CFD7E8" d="M40.2667 60.4004C42.7833 58.3031 49.3267 56.122 55.3667 64.1754"></path>
<path stroke-linecap="round" stroke-width="1.5" stroke="#CFD7E8" d="M90.0469 36.8929C93.2872 36.4108 100.01 37.9514 100.98 47.9713"></path>
</svg>
