<svg xmlns="http://www.w3.org/2000/svg" fill="none" viewBox="0 0 88 88" height="88" width="88">
<g filter="url(#filter0_d)">
<circle fill="#D6D2D2" r="40" cy="44" cx="44"></circle>
</g>
<g filter="url(#filter1_i)">
<circle fill="#EEEEEE" r="30" cy="44" cx="44"></circle>
</g>
<path fill="#C4C4C4" d="M63.006 73.4352C61.4384 73.6811 59.9561 72.6271 59.6793 71.0576C59.6659 70.9803 59.6554 70.9025 59.6478 70.8244L57.8818 52.073C57.8296 51.5186 57.6148 50.992 57.2645 50.5592C56.9142 50.1264 56.4438 49.8067 55.9125 49.6403L55.7204 49.5802L55.5004 49.5036C55.4144 49.473 55.3235 49.4361 55.2157 49.3951C54.7952 49.2292 54.2484 48.9736 53.6616 48.6289C53.086 48.2823 52.4917 47.8431 51.9709 47.3108C51.4523 46.7781 51.0121 46.1516 50.7174 45.4355C50.4078 44.7219 50.3452 43.9008 50.1867 43.0486C50.0508 42.1924 49.9126 41.2885 49.7915 40.3498C49.7253 39.8814 49.6722 39.4026 49.6148 38.9187C49.5544 38.4353 49.5087 37.9432 49.4578 37.4481C49.3585 36.4574 49.2819 35.4467 49.2154 34.4342C49.1587 33.4201 49.109 32.4047 49.0906 31.3997C49.065 30.396 49.0687 29.4032 49.0845 28.4402C49.1017 27.4771 49.1439 26.5414 49.1961 25.6521C49.2263 25.2067 49.2537 24.7738 49.2955 24.3524C49.3346 23.9314 49.3668 23.5256 49.4078 23.1343L49.541 22.0086C49.5835 21.6511 49.6406 21.3089 49.6851 20.989C49.7284 20.6693 49.7832 20.3675 49.8316 20.089L49.9011 19.6884L49.9733 19.3219C50.0434 18.9596 50.1218 18.5989 50.2083 18.2402L50.3076 17.8547L50.6055 16.6975C50.9803 15.2417 52.4289 14.2908 53.8981 14.6087C55.0426 14.8563 55.8582 15.7701 56.049 16.8423L60.6953 43.1933L65.3889 69.8119L65.4183 69.9786C65.703 71.5908 64.6232 73.1816 63.006 73.4352V73.4352ZM42.8183 20.2009C42.8112 19.7893 42.8131 19.4127 42.8 19.0784C42.7821 18.539 42.764 17.9997 42.7457 17.4603C42.7188 16.7399 42.0589 16.1515 41.2733 16.3057C40.7395 16.4105 40.35 16.8743 40.3085 17.4166L40.3069 17.4373L40.251 18.1666L40.1871 19.0028C40.1643 19.3255 40.1221 19.6891 40.0853 20.0857C40.0455 20.4821 40.0084 20.9115 39.9508 21.3646C39.895 21.8176 39.8452 22.2955 39.7775 22.7884C39.7079 23.2812 39.6433 23.7905 39.5647 24.3063C39.4819 24.8217 39.4078 25.346 39.316 25.8676C39.2242 26.3892 39.1396 26.9113 39.0387 27.4222L38.8947 28.1818L38.7435 28.9205C38.6471 29.4059 38.5398 29.8714 38.4435 30.3136C38.4007 30.5004 38.331 30.7945 38.2628 31.0805C38.2094 31.3048 38.0722 31.5003 37.8794 31.6269C37.6866 31.7535 37.4528 31.8017 37.2256 31.7617C36.9978 31.7215 36.794 31.5956 36.6562 31.4099C36.5183 31.2241 36.4568 30.9926 36.4844 30.7629L38.1532 16.8541C38.2286 16.2037 37.7722 15.5814 37.0887 15.4962C36.4625 15.4181 35.8858 15.8548 35.7423 16.4692L32.5454 30.1435C32.4972 30.3487 32.3724 30.5278 32.1966 30.644C32.0208 30.7602 31.8072 30.8049 31.5995 30.7688C31.3919 30.7327 31.2058 30.6186 31.0795 30.4499C30.9532 30.2812 30.8961 30.0705 30.92 29.8611C30.9562 29.5469 30.9955 29.2111 31.021 29.0048C31.0818 28.5564 31.1402 28.0822 31.2155 27.5931L31.326 26.8473L31.4505 26.0842C31.5304 25.5696 31.6296 25.0501 31.7217 24.5285C31.8138 24.0069 31.9235 23.4889 32.022 22.9764C32.1247 22.4647 32.2381 21.9641 32.3412 21.4772C32.4462 20.9909 32.5628 20.5248 32.6654 20.08C32.7662 19.6345 32.8782 19.2184 32.9763 18.8323C33.0772 18.4471 33.162 18.0909 33.251 17.7799L33.4769 16.9723L33.6739 16.2678L33.6835 16.234C33.846 15.6439 33.5435 15.0131 32.9621 14.7791C32.3368 14.5274 31.6259 14.8302 31.3742 15.4555L31.0928 16.1544L30.7698 16.9574C30.6431 17.2671 30.516 17.6216 30.3687 18.006C30.2242 18.3913 30.0618 18.8072 29.9078 19.2528C29.7521 19.6979 29.579 20.1653 29.4158 20.6536C29.2543 21.1424 29.0805 21.646 28.9166 22.1618C28.7566 22.6786 28.5846 23.2016 28.4299 23.7296C28.2752 24.2577 28.1135 24.7846 27.9718 25.308L27.7556 26.0851L27.5552 26.8471C27.4209 27.3469 27.3052 27.8344 27.1901 28.2956C27.0801 28.7585 26.9768 29.1964 26.8869 29.6033C26.8039 29.9741 26.7245 30.3457 26.6485 30.718C26.5783 31.0502 26.3368 33.1462 26.4161 33.3926C26.1725 36.9442 27.9401 40.1759 30.7653 41.5472L24.7272 69.8632C24.713 69.9309 24.701 69.999 24.6912 70.0675C24.4681 71.6628 25.5805 73.1371 27.1759 73.3602C28.7712 73.5833 30.2455 72.471 30.4686 70.8756L34.4792 42.2025C37.6744 41.8728 40.496 39.3357 41.4203 35.7915C41.5482 35.5771 41.7887 34.5403 41.8306 34.2944C41.8687 34.0513 41.9189 33.7554 41.9667 33.4192C42.0178 33.0823 42.0694 32.7032 42.1239 32.2902C42.1785 31.8771 42.2313 31.4301 42.2862 30.9575C42.3359 30.4847 42.3939 29.9871 42.4387 29.4715L42.511 28.687L42.5736 27.8829C42.6194 27.3424 42.6478 26.7921 42.6829 26.243C42.7182 25.6938 42.7353 25.1435 42.7618 24.6032C42.7841 24.0625 42.793 23.5296 42.8084 23.0151C42.822 22.5005 42.8193 22.0021 42.8251 21.5306C42.8326 21.0587 42.8223 20.6123 42.8183 20.2009V20.2009Z"></path>
<defs>
<filter color-interpolation-filters="sRGB" filterUnits="userSpaceOnUse" height="88" width="88" y="0" x="0" id="filter0_d">
<feFlood result="BackgroundImageFix" flood-opacity="0"></feFlood>
<feColorMatrix result="hardAlpha" values="0 0 0 0 0 0 0 0 0 0 0 0 0 0 0 0 0 0 127 0" type="matrix" in="SourceAlpha"></feColorMatrix>
<feOffset></feOffset>
<feGaussianBlur stdDeviation="2"></feGaussianBlur>
<feComposite operator="out" in2="hardAlpha"></feComposite>
<feColorMatrix values="0 0 0 0 0.0666667 0 0 0 0 0.0666667 0 0 0 0 0.0666667 0 0 0 0.25 0" type="matrix"></feColorMatrix>
<feBlend result="effect1_dropShadow" in2="BackgroundImageFix" mode="normal"></feBlend>
<feBlend result="shape" in2="effect1_dropShadow" in="SourceGraphic" mode="normal"></feBlend>
</filter>
<filter color-interpolation-filters="sRGB" filterUnits="userSpaceOnUse" height="60" width="60" y="14" x="14" id="filter1_i">
<feFlood result="BackgroundImageFix" flood-opacity="0"></feFlood>
<feBlend result="shape" in2="BackgroundImageFix" in="SourceGraphic" mode="normal"></feBlend>
<feColorMatrix result="hardAlpha" values="0 0 0 0 0 0 0 0 0 0 0 0 0 0 0 0 0 0 127 0" type="matrix" in="SourceAlpha"></feColorMatrix>
<feOffset></feOffset>
<feGaussianBlur stdDeviation="10"></feGaussianBlur>
<feComposite k3="1" k2="-1" operator="arithmetic" in2="hardAlpha"></feComposite>
<feColorMatrix values="0 0 0 0 0 0 0 0 0 0 0 0 0 0 0 0 0 0 0.1 0" type="matrix"></feColorMatrix>
<feBlend result="effect1_innerShadow" in2="shape" mode="normal"></feBlend>
</filter>
</defs>
</svg>
